<?xml version="1.0" standalone="no"?>
<!DOCTYPE svg PUBLIC "-//W3C//DTD SVG 20010904//EN"
 "http://www.w3.org/TR/2001/REC-SVG-20010904/DTD/svg10.dtd">
<svg version="1.0" xmlns="http://www.w3.org/2000/svg"
 width="640.000000pt" height="1280.000000pt" viewBox="0 0 640.000000 1280.000000"
 preserveAspectRatio="xMidYMid meet">
<metadata>
Created by potrace 1.15, written by Peter Selinger 2001-2017
</metadata>
<g transform="translate(0.000000,1280.000000) scale(0.100000,-0.100000)"
fill="purple" stroke="none">
<path d="M3177 12785 c-214 -41 -437 -156 -625 -323 l-53 -47 26 -46 25 -47
-30 -19 -30 -19 24 -23 25 -23 30 48 c28 46 223 234 242 234 20 0 20 -32 -1
-116 -31 -123 -24 -156 52 -247 117 -139 133 -186 148 -420 15 -227 27 -273
92 -333 30 -28 69 -54 82 -54 2 0 6 78 8 173 3 168 4 174 33 232 22 45 62 92
161 190 174 172 205 234 203 410 -1 50 -4 80 -6 68 -2 -13 -6 -23 -9 -23 -2 0
-25 16 -51 37 -27 20 -73 48 -103 62 -49 23 -67 26 -165 26 -85 0 -122 -4
-160 -19 -65 -25 -155 -78 -227 -133 -51 -39 -58 -42 -58 -23 0 52 28 87 112
143 131 88 215 117 335 117 121 0 286 -68 311 -129 9 -23 10 -21 5 17 l-6 42
104 -1 104 -1 133 -161 c126 -154 329 -443 318 -454 -5 -5 -366 22 -453 34
-41 5 -42 5 -40 -22 2 -26 -14 -39 -212 -174 -191 -131 -216 -151 -237 -194
-42 -81 -82 -217 -114 -383 -51 -263 -60 -300 -75 -320 -13 -17 -14 -11 -15
56 -1 160 -51 419 -144 739 -50 174 -70 204 -176 260 -79 42 -107 40 -155 -9
-56 -57 -86 -69 -318 -124 -26 -6 -21 2 51 96 76 98 81 109 114 223 20 66 39
129 43 140 4 11 -14 -3 -41 -32 -44 -47 -58 -54 -139 -78 -455 -134 -669 -441
-701 -1002 l-7 -123 -45 -57 -45 -58 7 -168 6 -169 -45 -60 c-31 -42 -45 -70
-45 -91 0 -18 23 -283 50 -591 28 -307 50 -564 50 -571 0 -13 118 -70 220
-106 45 -15 96 -24 168 -27 56 -2 102 -7 102 -11 0 -3 -23 -76 -51 -161 -42
-125 -59 -163 -88 -195 -129 -142 -253 -433 -361 -846 l-48 -187 19 -42 c10
-23 19 -43 19 -45 0 -1 -18 -10 -39 -20 -38 -17 -41 -22 -90 -155 -28 -75 -51
-142 -51 -147 0 -6 30 -14 68 -18 261 -26 395 -135 445 -360 21 -96 25 -136
42 -400 14 -221 22 -275 76 -510 22 -93 23 -118 21 -371 -5 -439 46 -821 183
-1380 80 -324 127 -439 460 -1104 l208 -415 -6 -700 c-7 -714 -16 -995 -41
-1197 -29 -229 -94 -325 -341 -503 -60 -43 -143 -108 -183 -143 -83 -73 -83
-72 7 -126 107 -65 159 -76 358 -76 294 0 348 25 555 258 131 148 220 229 284
264 l42 22 59 -41 58 -41 3 -149 2 -149 68 4 c97 4 110 9 127 43 20 38 33 236
38 583 4 255 4 259 25 267 20 8 28 -4 96 -146 41 -85 77 -155 80 -155 5 0 84
15 134 26 19 4 25 -2 38 -33 9 -21 36 -83 62 -138 l46 -100 4 -136 4 -136 -33
-37 c-24 -28 -36 -54 -44 -102 l-13 -64 170 0 c193 0 211 5 276 71 95 97 127
218 116 434 -8 174 -23 245 -83 411 -53 146 -81 253 -81 317 l0 37 88 0 c73 0
93 4 124 23 l37 22 -128 166 -128 165 -7 115 c-14 225 -72 442 -170 639 -29
58 -101 184 -161 280 -205 331 -266 472 -287 665 -11 98 -10 112 73 760 46
363 84 696 84 740 0 67 4 86 24 118 21 34 34 112 108 605 46 312 86 592 89
622 3 30 14 76 25 102 13 33 19 71 19 130 0 111 17 243 45 354 62 244 147 370
356 525 59 44 114 91 123 104 40 60 17 143 -189 681 -270 706 -363 992 -377
1158 l-3 38 249 93 c137 52 253 100 257 107 5 7 9 20 9 28 1 8 27 254 58 545
l58 530 -23 13 c-31 17 -29 31 7 39 17 3 30 8 30 12 0 4 -7 58 -15 121 -8 63
-44 365 -80 670 -62 524 -66 556 -88 572 -59 46 -151 78 -507 176 l-385 107
-82 103 c-46 56 -83 106 -83 110 0 4 18 31 40 60 22 29 38 57 35 62 -8 13
-170 69 -280 96 -128 32 -323 41 -438 19z"/>
</g>
</svg>
