<?xml version="1.0" standalone="no"?>
<!DOCTYPE svg PUBLIC "-//W3C//DTD SVG 20010904//EN"
 "http://www.w3.org/TR/2001/REC-SVG-20010904/DTD/svg10.dtd">
<svg version="1.0" xmlns="http://www.w3.org/2000/svg"
 width="1270.000000pt" height="1280.000000pt" viewBox="0 0 1270.000000 1280.000000"
 preserveAspectRatio="xMidYMid meet">
<metadata>
Created by potrace 1.15, written by Peter Selinger 2001-2017
</metadata>
<g transform="translate(0.000000,1280.000000) scale(0.100000,-0.100000)"
fill="purple" stroke="none">
<path d="M7586 12518 c-4 -156 -11 -490 -16 -743 -5 -253 -14 -683 -20 -955
-6 -272 -15 -702 -20 -955 -5 -253 -12 -594 -16 -757 l-7 -297 34 -4 c59 -8
-69 2 -261 20 -265 24 -987 24 -1220 0 -206 -22 -381 -45 -388 -51 -4 -5 5
-119 28 -331 26 -241 30 -288 26 -293 -3 -2 -62 3 -133 12 -510 63 -1204 146
-1224 146 -18 0 -19 -9 -19 -204 l0 -205 -52 5 c-29 3 -239 18 -466 34 -227
15 -415 30 -417 32 -3 3 -20 1345 -31 2606 -5 495 -10 715 -18 721 -6 5 -240
113 -521 241 -280 128 -636 290 -790 360 -154 70 -539 246 -855 390 -316 144
-647 295 -735 335 l-160 73 -7 -191 c-3 -106 -11 -804 -17 -1552 -7 -748 -16
-1812 -21 -2365 -18 -1846 -30 -3134 -40 -4375 -6 -676 -12 -1266 -13 -1310
-2 -44 -4 2133 -5 4838 l-2 4917 -80 0 -80 0 0 -6295 0 -6295 69 0 c44 0 71
-4 73 -12 3 -9 311 -9 1319 0 723 7 1466 15 1652 18 l337 7 0 201 c0 110 -4
586 -10 1056 -9 800 -13 1215 -40 3835 -6 561 -15 1360 -19 1775 -5 415 -7
757 -5 759 3 4 854 -66 909 -74 l30 -5 0 -187 0 -188 185 -22 c102 -12 268
-31 370 -43 102 -11 262 -30 355 -40 94 -11 251 -29 350 -40 99 -11 189 -22
201 -25 22 -5 23 -11 55 -275 5 -47 15 -132 22 -190 l13 -104 84 -33 c122 -48
336 -118 480 -157 293 -79 631 -135 945 -156 248 -16 260 -18 115 -15 -74 1
-122 0 -106 -2 l29 -5 -7 -311 c-4 -172 -11 -521 -16 -777 -6 -256 -14 -681
-20 -945 -6 -264 -15 -695 -20 -957 -16 -745 -29 -1402 -40 -1903 -6 -253 -13
-639 -16 -857 l-7 -398 2686 0 2687 0 0 6400 0 6400 -2553 0 -2554 0 -7 -282z
m-6512 -233 c391 -178 1055 -482 1476 -674 l765 -350 6 -578 c10 -852 16
-1796 12 -1736 -4 47 -7 52 -33 62 -24 8 -30 7 -30 -4 0 -12 -7 -11 -35 5
l-35 20 0 -21 c0 -17 -3 -19 -14 -10 -11 10 -15 9 -18 -3 -2 -12 -11 -11 -53
9 -39 18 -51 20 -53 9 -3 -11 -9 -11 -34 2 -24 12 -32 13 -38 3 -5 -6 -15 -9
-23 -6 -9 3 -17 0 -19 -7 -2 -11 -15 -8 -53 9 -38 18 -51 20 -53 10 -2 -10 -9
-10 -34 2 -23 12 -32 13 -38 3 -5 -9 -21 -5 -59 14 -40 21 -51 23 -51 11 0 -9
-6 -12 -15 -9 -8 4 -15 1 -15 -5 0 -17 -26 -13 -66 10 -29 16 -39 17 -45 8 -6
-10 -13 -10 -35 0 -20 9 -29 9 -34 1 -5 -8 -22 -4 -54 12 -39 19 -48 20 -56 8
-7 -11 -11 -11 -24 -1 -14 12 -16 10 -16 -7 0 -20 -2 -20 -55 8 -44 23 -55 26
-55 13 0 -9 -6 -13 -15 -9 -9 3 -15 0 -15 -9 0 -12 -11 -10 -51 11 -40 20 -54
23 -60 13 -6 -10 -18 -8 -54 11 -38 20 -48 21 -55 10 -7 -12 -12 -12 -35 0
-21 11 -28 12 -34 1 -6 -10 -20 -7 -60 13 -41 21 -51 23 -51 11 0 -19 2 -19
-56 10 -40 21 -50 22 -52 10 -4 -19 -2 -19 -52 7 -33 18 -43 20 -49 9 -5 -8
-14 -10 -21 -6 -7 4 -16 2 -20 -4 -5 -9 -19 -6 -54 11 -35 16 -49 19 -54 11
-6 -9 -21 -6 -57 12 -57 29 -53 29 -57 10 -2 -12 -11 -11 -50 9 -37 19 -48 21
-48 10 0 -19 -3 -18 -60 11 -40 20 -49 22 -52 10 -2 -12 -12 -10 -52 10 -58
30 -54 29 -58 10 -2 -12 -11 -11 -50 9 -36 18 -48 21 -50 10 -2 -11 -15 -8
-57 11 -40 19 -56 22 -62 14 -5 -9 -39 3 -116 40 -59 29 -147 72 -195 94 -63
31 -88 47 -90 62 -1 11 -5 -18 -9 -65 -7 -87 -4 819 8 2318 3 463 8 842 11
842 3 0 325 -146 716 -325z m2263 -3457 c-2 -13 -4 -3 -4 22 0 25 2 35 4 23 2
-13 2 -33 0 -45z m4296 -35 c-7 -2 -21 -2 -30 0 -10 3 -4 5 12 5 17 0 24 -2
18 -5z m90 -10 c-7 -2 -21 -2 -30 0 -10 3 -4 5 12 5 17 0 24 -2 18 -5z m50
-10 c-7 -2 -19 -2 -25 0 -7 3 -2 5 12 5 14 0 19 -2 13 -5z m134 -19 c-3 -3
-12 -4 -19 -1 -8 3 -5 6 6 6 11 1 17 -2 13 -5z"/>
<path d="M7418 8823 c6 -2 18 -2 25 0 6 3 1 5 -13 5 -14 0 -19 -2 -12 -5z"/>
</g>
</svg>
