<?xml version="1.0" standalone="no"?>
<!DOCTYPE svg PUBLIC "-//W3C//DTD SVG 20010904//EN"
 "http://www.w3.org/TR/2001/REC-SVG-20010904/DTD/svg10.dtd">
<svg version="1.0" xmlns="http://www.w3.org/2000/svg"
 width="1280.000000pt" height="960.000000pt" viewBox="0 0 1280.000000 960.000000"
 preserveAspectRatio="xMidYMid meet">
<metadata>
Created by potrace 1.15, written by Peter Selinger 2001-2017
</metadata>
<g transform="translate(0.000000,960.000000) scale(0.100000,-0.100000)"
fill="purple" stroke="none">
<path d="M9915 9285 c-132 -24 -433 -78 -670 -119 -236 -41 -806 -141 -1265
-221 -459 -80 -974 -170 -1145 -200 -362 -63 -2259 -394 -2840 -496 -220 -38
-530 -93 -688 -120 -159 -28 -299 -54 -312 -59 -61 -23 -133 -117 -149 -195
-3 -16 -112 -824 -241 -1795 -130 -971 -269 -2017 -310 -2325 -41 -307 -75
-589 -75 -625 1 -104 46 -179 118 -194 23 -5 1297 -159 3172 -384 l475 -57 17
-155 c23 -216 22 -321 -2 -427 -45 -193 -112 -325 -220 -433 l-65 -65 -478
-179 c-264 -99 -499 -193 -523 -208 -58 -39 -65 -64 -26 -99 16 -15 52 -34 78
-43 70 -23 1692 -363 1799 -377 116 -15 271 -6 357 21 62 19 244 133 718 449
97 64 200 218 240 356 30 106 43 234 37 377 -5 119 -11 154 -60 343 -30 116
-53 212 -50 215 2 2 444 -49 981 -113 1010 -122 1139 -132 1262 -106 97 21
193 111 220 207 10 35 349 6361 352 6567 2 120 1 123 -115 306 -112 177 -133
192 -261 195 -72 2 -142 -7 -331 -41z"/>
</g>
</svg>
