<?xml version="1.0" standalone="no"?>
<!DOCTYPE svg PUBLIC "-//W3C//DTD SVG 20010904//EN"
 "http://www.w3.org/TR/2001/REC-SVG-20010904/DTD/svg10.dtd">
<svg version="1.0" xmlns="http://www.w3.org/2000/svg"
 width="1280.000000pt" height="716.000000pt" viewBox="0 0 1280.000000 716.000000"
 preserveAspectRatio="xMidYMid meet">
<metadata>
Created by potrace 1.15, written by Peter Selinger 2001-2017
</metadata>
<g transform="translate(0.000000,716.000000) scale(0.100000,-0.100000)"
fill="purple" stroke="none">
<path d="M10010 7149 c-539 -44 -1002 -190 -1356 -427 -396 -266 -648 -650
-655 -1002 -1 -66 1 -76 22 -93 18 -15 33 -17 69 -13 40 5 37 3 -27 -18 -83
-27 -125 -52 -170 -98 -44 -45 -63 -95 -70 -187 -16 -205 35 -288 201 -331
145 -37 343 -42 1841 -49 1376 -6 1421 -7 885 -14 -629 -10 -2239 6 -2540 24
-225 14 -218 14 -241 -7 -57 -51 11 -323 115 -464 171 -230 475 -372 871 -409
174 -17 1348 -34 1805 -26 828 12 1052 37 1315 144 288 118 448 314 486 596
18 140 3 174 -78 176 -33 0 -29 3 34 19 132 35 201 88 224 172 17 63 6 197
-20 252 -48 97 -163 170 -346 217 -131 33 -116 37 31 8 57 -12 115 -18 128
-15 40 10 50 52 37 159 -42 356 -261 690 -626 953 -109 78 -392 220 -535 267
-343 114 -658 166 -1050 172 -129 2 -287 -1 -350 -6z m90 -1429 c-245 -4 -571
-10 -725 -12 -154 -3 -262 -4 -240 -1 94 9 611 20 995 20 l415 0 -445 -7z"/>
<path d="M4657 7120 c-238 -40 -451 -180 -1021 -670 -522 -449 -676 -552 -894
-601 -54 -12 -177 -41 -275 -65 -931 -231 -1550 -606 -1801 -1093 -100 -193
-140 -360 -139 -581 0 -309 77 -643 208 -908 79 -160 165 -281 281 -397 196
-196 428 -323 731 -401 248 -63 513 -82 700 -50 714 125 1686 835 2301 1682
282 389 481 799 582 1199 55 218 73 366 74 585 0 254 -30 439 -110 677 -34
101 -151 345 -202 420 -77 113 -173 181 -287 202 -65 12 -79 12 -148 1z"/>
<path d="M7343 6835 c-73 -31 -170 -173 -270 -391 -33 -73 -41 -84 -58 -79
-11 4 -52 9 -92 12 -271 21 -578 -283 -852 -842 -257 -526 -434 -1162 -508
-1830 -26 -229 -25 -942 0 -1160 65 -554 184 -986 352 -1270 139 -236 290
-351 476 -363 l76 -4 6 -77 c8 -94 66 -330 97 -391 57 -115 150 -152 234 -95
35 23 39 24 66 10 90 -47 203 27 242 157 l11 38 64 0 c130 0 195 79 144 177
-28 57 -81 97 -175 134 -118 47 -331 158 -394 205 -2 1 11 27 28 57 17 30 37
85 45 123 31 148 14 298 -89 791 -128 611 -151 789 -151 1198 0 316 8 415 51
655 71 387 172 681 429 1245 204 447 244 565 252 735 4 100 1 122 -32 227 -6
19 -1 23 52 38 92 27 281 64 363 71 94 7 192 51 221 97 23 39 25 99 2 133 -20
31 -77 61 -132 70 l-41 7 0 46 c0 134 -72 219 -178 209 -45 -4 -51 -3 -61 19
-25 54 -111 78 -178 48z"/>
<path d="M12364 3886 c-55 -25 -99 -89 -139 -204 -40 -116 -100 -252 -111
-252 -3 0 -22 14 -41 30 -93 82 -242 129 -434 137 -158 7 -273 -5 -469 -48
-334 -72 -658 -189 -1420 -514 -688 -293 -973 -395 -1106 -395 -53 0 -191 -35
-262 -67 -93 -41 -216 -127 -308 -215 -546 -524 -712 -1536 -339 -2063 55 -77
157 -173 226 -213 133 -75 260 -94 469 -68 480 61 1231 325 1945 686 1139 576
1821 1232 1946 1875 15 77 18 286 6 380 l-7 60 127 37 c182 51 235 73 286 119
74 65 86 146 29 207 -24 25 -26 31 -15 53 17 32 16 94 -1 127 -27 51 -101 101
-173 117 -32 6 -33 8 -33 61 0 61 -17 110 -48 137 -27 24 -89 31 -128 13z"/>
<path d="M4257 2460 c-201 -18 -394 -68 -537 -140 -42 -21 -135 -82 -207 -137
-371 -278 -670 -396 -1223 -483 -107 -17 -240 -42 -295 -55 -190 -47 -312
-130 -375 -255 l-29 -58 -208 -7 c-234 -9 -517 -1 -610 16 -73 13 -96 34 -203
189 -94 136 -183 192 -280 176 -139 -22 -290 -174 -290 -290 0 -95 82 -197
207 -259 l63 -31 -39 -41 c-203 -212 -249 -378 -137 -490 61 -60 145 -99 228
-103 117 -7 182 38 345 239 34 42 78 90 99 105 l38 29 200 -1 c177 -1 381 -12
543 -30 50 -6 54 -9 84 -57 164 -267 564 -435 1254 -526 164 -22 272 -33 530
-56 94 -9 233 -23 310 -32 203 -24 599 -24 718 0 237 49 412 142 563 299 189
197 337 504 418 870 108 483 -43 834 -439 1019 -189 89 -473 131 -728 109z"/>
</g>
</svg>
