<?xml version="1.0" standalone="no"?>
<!DOCTYPE svg PUBLIC "-//W3C//DTD SVG 20010904//EN"
 "http://www.w3.org/TR/2001/REC-SVG-20010904/DTD/svg10.dtd">
<svg version="1.0" xmlns="http://www.w3.org/2000/svg"
 width="1182.000000pt" height="1280.000000pt" viewBox="0 0 1182.000000 1280.000000"
 preserveAspectRatio="xMidYMid meet">
<metadata>
Created by potrace 1.15, written by Peter Selinger 2001-2017
</metadata>
<g transform="translate(0.000000,1280.000000) scale(0.100000,-0.100000)"
fill="purple" stroke="none">
<path d="M4087 12671 c-186 -71 -340 -130 -341 -132 -15 -15 32 -236 143 -679
l129 -515 -27 -7 c-14 -4 -73 -12 -131 -18 -105 -11 -194 -23 -305 -40 -33 -5
-253 -39 -490 -75 -236 -36 -457 -70 -490 -75 -109 -18 -787 -120 -796 -120
-4 0 -51 -49 -104 -109 l-95 -109 -98 -33 c-53 -18 -281 -78 -506 -134 l-409
-102 -21 -36 c-19 -32 -34 -41 -143 -83 l-121 -47 -142 -142 -141 -141 26 -95
27 -94 125 -60 c214 -101 415 -216 409 -231 -5 -13 275 -534 349 -649 53 -82
134 -229 363 -655 28 -52 117 -176 233 -322 l188 -236 30 -124 c47 -190 126
-455 167 -559 20 -52 59 -131 87 -177 l50 -83 8 -137 c4 -75 8 -254 8 -397 1
-257 1 -261 26 -309 14 -27 25 -57 25 -67 0 -18 -39 -55 -114 -107 -80 -55
-40 174 -346 -1982 -155 -1093 -171 -1219 -161 -1259 8 -31 9 -47 1 -55 -15
-15 -12 -152 6 -226 21 -89 73 -195 144 -288 366 -486 1305 -838 2433 -913
232 -15 828 -6 1032 15 594 63 1065 178 1473 358 129 57 155 70 287 144 85 48
287 192 390 280 45 37 44 37 133 82 46 23 103 55 127 72 24 16 48 30 53 30 6
0 12 3 14 8 2 4 17 18 33 30 52 40 165 155 165 169 0 7 4 13 9 13 13 0 67 119
81 178 13 57 2 135 -27 181 -25 40 -102 107 -143 126 -22 10 -40 22 -40 27 0
4 -6 8 -14 8 -7 0 -46 13 -85 30 -40 16 -82 31 -94 33 -12 2 -29 7 -37 10 -16
6 -51 14 -117 26 -41 8 -43 7 -44 -18 0 -14 -2 -21 -5 -16 -8 22 -195 1263
-344 2287 -39 269 -55 351 -78 411 -32 81 -94 181 -166 265 -51 59 -54 67 -29
80 19 11 21 41 43 527 11 244 14 276 35 330 14 35 41 160 65 300 23 132 95
548 160 925 65 377 157 910 205 1185 47 275 90 510 95 521 4 12 19 24 32 26
81 18 836 283 849 299 9 10 19 16 21 14 3 -3 76 20 164 51 283 99 421 122 541
90 169 -45 256 -144 257 -290 0 -67 -1 -71 -103 -269 -143 -278 -197 -416
-267 -685 -74 -286 -103 -518 -123 -982 -11 -258 -27 -336 -91 -467 -69 -141
-181 -232 -344 -282 -102 -32 -124 -28 -260 38 -179 87 -259 111 -290 88 -15
-11 -20 -31 -24 -95 -15 -259 115 -693 215 -718 47 -12 338 70 867 243 l268
88 40 105 c21 58 144 393 273 745 520 1426 765 2146 765 2255 0 108 -220 449
-563 869 -124 151 -375 410 -422 434 -28 14 -64 12 -435 -22 -223 -20 -410
-40 -416 -44 -15 -9 -298 -22 -937 -43 l-499 -17 -86 -53 c-47 -30 -94 -54
-104 -54 -11 0 -16 -4 -13 -10 3 -5 -1 -10 -10 -10 -9 0 -195 54 -415 120
l-399 120 -253 15 c-139 8 -341 19 -448 25 -107 7 -197 13 -199 16 -10 9 66
372 159 762 74 311 100 437 98 474 l-3 50 -165 58 c-91 31 -241 87 -334 123
-94 37 -172 67 -175 66 -3 0 -158 -58 -344 -128z m3200 -9898 c-3 -10 -5 -2
-5 17 0 19 2 27 5 18 2 -10 2 -26 0 -35z"/>
</g>
</svg>
